<svg xmlns="http://www.w3.org/2000/svg" xmlns:xlink="http://www.w3.org/1999/xlink" id="processonSvg1000" viewBox="109.0 104.75 855.6499152036812 358.81854048302694" width="855.6499152036812" height="358.81854048302694"><defs id="ProcessOnDefs1001"><marker id="ProcessOnMarker1013" markerUnits="userSpaceOnUse" orient="auto" markerWidth="16.23606797749979" markerHeight="10.550836550532098" viewBox="-1.0 -1.3763819204711736 16.23606797749979 10.550836550532098" refX="-1.0" refY="3.8990363547948754"><path id="ProcessOnPath1014" d="M12.0 3.8990363547948754L0.0 7.798072709589751V0.0Z" stroke="#323232" stroke-width="2.0" fill="#323232" transform="matrix(1.0,0.0,0.0,1.0,0.0,0.0)"/></marker><marker id="ProcessOnMarker1020" markerUnits="userSpaceOnUse" orient="auto" markerWidth="16.23606797749979" markerHeight="10.550836550532098" viewBox="-1.0 -1.3763819204711736 16.23606797749979 10.550836550532098" refX="-1.0" refY="3.8990363547948754"><path id="ProcessOnPath1021" d="M12.0 3.8990363547948754L0.0 7.798072709589751V0.0Z" stroke="#323232" stroke-width="2.0" fill="#323232" transform="matrix(1.0,0.0,0.0,1.0,0.0,0.0)"/></marker><marker id="ProcessOnMarker1032" markerUnits="userSpaceOnUse" orient="auto" markerWidth="16.23606797749979" markerHeight="10.550836550532098" viewBox="-1.0 -1.3763819204711736 16.23606797749979 10.550836550532098" refX="-1.0" refY="3.8990363547948754"><path id="ProcessOnPath1033" d="M12.0 3.8990363547948754L0.0 7.798072709589751V0.0Z" stroke="#323232" stroke-width="2.0" fill="#323232" transform="matrix(1.0,0.0,0.0,1.0,0.0,0.0)"/></marker><marker id="ProcessOnMarker1039" markerUnits="userSpaceOnUse" orient="auto" markerWidth="16.23606797749979" markerHeight="10.550836550532098" viewBox="-1.0 -1.3763819204711736 16.23606797749979 10.550836550532098" refX="-1.0" refY="3.8990363547948754"><path id="ProcessOnPath1040" d="M12.0 3.8990363547948754L0.0 7.798072709589751V0.0Z" stroke="#323232" stroke-width="2.0" fill="#323232" transform="matrix(1.0,0.0,0.0,1.0,0.0,0.0)"/></marker><marker id="ProcessOnMarker1046" markerUnits="userSpaceOnUse" orient="auto" markerWidth="16.23606797749979" markerHeight="10.550836550532098" viewBox="-1.0 -1.3763819204711736 16.23606797749979 10.550836550532098" refX="-1.0" refY="3.8990363547948754"><path id="ProcessOnPath1047" d="M12.0 3.8990363547948754L0.0 7.798072709589751V0.0Z" stroke="#323232" stroke-width="2.0" fill="#323232" transform="matrix(1.0,0.0,0.0,1.0,0.0,0.0)"/></marker><marker id="ProcessOnMarker1057" markerUnits="userSpaceOnUse" orient="auto" markerWidth="16.23606797749979" markerHeight="10.550836550532098" viewBox="-1.0 -1.3763819204711736 16.23606797749979 10.550836550532098" refX="-1.0" refY="3.8990363547948754"><path id="ProcessOnPath1058" d="M12.0 3.8990363547948754L0.0 7.798072709589751V0.0Z" stroke="#323232" stroke-width="2.0" fill="#323232" transform="matrix(1.0,0.0,0.0,1.0,0.0,0.0)"/></marker><marker id="ProcessOnMarker1066" markerUnits="userSpaceOnUse" orient="auto" markerWidth="16.23606797749979" markerHeight="10.550836550532098" viewBox="-1.0 -1.3763819204711736 16.23606797749979 10.550836550532098" refX="-1.0" refY="3.8990363547948754"><path id="ProcessOnPath1067" d="M12.0 3.8990363547948754L0.0 7.798072709589751V0.0Z" stroke="#323232" stroke-width="2.0" fill="#323232" transform="matrix(1.0,0.0,0.0,1.0,0.0,0.0)"/></marker><marker id="ProcessOnMarker1073" markerUnits="userSpaceOnUse" orient="auto" markerWidth="16.23606797749979" markerHeight="10.550836550532098" viewBox="-1.0 -1.3763819204711736 16.23606797749979 10.550836550532098" refX="-1.0" refY="3.8990363547948754"><path id="ProcessOnPath1074" d="M12.0 3.8990363547948754L0.0 7.798072709589751V0.0Z" stroke="#323232" stroke-width="2.0" fill="#323232" transform="matrix(1.0,0.0,0.0,1.0,0.0,0.0)"/></marker><marker id="ProcessOnMarker1088" markerUnits="userSpaceOnUse" orient="auto" markerWidth="16.23606797749979" markerHeight="10.550836550532098" viewBox="-1.0 -1.3763819204711736 16.23606797749979 10.550836550532098" refX="-1.0" refY="3.8990363547948754"><path id="ProcessOnPath1089" d="M12.0 3.8990363547948754L0.0 7.798072709589751V0.0Z" stroke="#323232" stroke-width="2.0" fill="#323232" transform="matrix(1.0,0.0,0.0,1.0,0.0,0.0)"/></marker><marker id="ProcessOnMarker1095" markerUnits="userSpaceOnUse" orient="auto" markerWidth="16.23606797749979" markerHeight="10.550836550532098" viewBox="-1.0 -1.3763819204711736 16.23606797749979 10.550836550532098" refX="-1.0" refY="3.8990363547948754"><path id="ProcessOnPath1096" d="M12.0 3.8990363547948754L0.0 7.798072709589751V0.0Z" stroke="#323232" stroke-width="2.0" fill="#323232" transform="matrix(1.0,0.0,0.0,1.0,0.0,0.0)"/></marker><marker id="ProcessOnMarker1102" markerUnits="userSpaceOnUse" orient="auto" markerWidth="16.23606797749979" markerHeight="10.550836550532098" viewBox="-1.0 -1.3763819204711736 16.23606797749979 10.550836550532098" refX="-1.0" refY="3.8990363547948754"><path id="ProcessOnPath1103" d="M12.0 3.8990363547948754L0.0 7.798072709589751V0.0Z" stroke="#323232" stroke-width="2.0" fill="#323232" transform="matrix(1.0,0.0,0.0,1.0,0.0,0.0)"/></marker><marker id="ProcessOnMarker1113" markerUnits="userSpaceOnUse" orient="auto" markerWidth="16.23606797749979" markerHeight="10.550836550532098" viewBox="-1.0 -1.3763819204711736 16.23606797749979 10.550836550532098" refX="-1.0" refY="3.8990363547948754"><path id="ProcessOnPath1114" d="M12.0 3.8990363547948754L0.0 7.798072709589751V0.0Z" stroke="#323232" stroke-width="2.0" fill="#323232" transform="matrix(1.0,0.0,0.0,1.0,0.0,0.0)"/></marker><marker id="ProcessOnMarker1122" markerUnits="userSpaceOnUse" orient="auto" markerWidth="16.23606797749979" markerHeight="10.550836550532098" viewBox="-1.0 -1.3763819204711736 16.23606797749979 10.550836550532098" refX="-1.0" refY="3.8990363547948754"><path id="ProcessOnPath1123" d="M12.0 3.8990363547948754L0.0 7.798072709589751V0.0Z" stroke="#323232" stroke-width="2.0" fill="#323232" transform="matrix(1.0,0.0,0.0,1.0,0.0,0.0)"/></marker><marker id="ProcessOnMarker1129" markerUnits="userSpaceOnUse" orient="auto" markerWidth="16.23606797749979" markerHeight="10.550836550532098" viewBox="-1.0 -1.3763819204711736 16.23606797749979 10.550836550532098" refX="-1.0" refY="3.8990363547948754"><path id="ProcessOnPath1130" d="M12.0 3.8990363547948754L0.0 7.798072709589751V0.0Z" stroke="#323232" stroke-width="2.0" fill="#323232" transform="matrix(1.0,0.0,0.0,1.0,0.0,0.0)"/></marker><marker id="ProcessOnMarker1136" markerUnits="userSpaceOnUse" orient="auto" markerWidth="16.23606797749979" markerHeight="10.550836550532098" viewBox="-1.0 -1.3763819204711736 16.23606797749979 10.550836550532098" refX="-1.0" refY="3.8990363547948754"><path id="ProcessOnPath1137" d="M12.0 3.8990363547948754L0.0 7.798072709589751V0.0Z" stroke="#323232" stroke-width="2.0" fill="#323232" transform="matrix(1.0,0.0,0.0,1.0,0.0,0.0)"/></marker><marker id="ProcessOnMarker1153" markerUnits="userSpaceOnUse" orient="auto" markerWidth="16.23606797749979" markerHeight="10.550836550532098" viewBox="-1.0 -1.3763819204711736 16.23606797749979 10.550836550532098" refX="-1.0" refY="3.8990363547948754"><path id="ProcessOnPath1154" d="M12.0 3.8990363547948754L0.0 7.798072709589751V0.0Z" stroke="#323232" stroke-width="2.0" fill="#323232" transform="matrix(1.0,0.0,0.0,1.0,0.0,0.0)"/></marker><marker id="ProcessOnMarker1160" markerUnits="userSpaceOnUse" orient="auto" markerWidth="16.23606797749979" markerHeight="10.550836550532098" viewBox="-1.0 -1.3763819204711736 16.23606797749979 10.550836550532098" refX="-1.0" refY="3.8990363547948754"><path id="ProcessOnPath1161" d="M12.0 3.8990363547948754L0.0 7.798072709589751V0.0Z" stroke="#323232" stroke-width="2.0" fill="#323232" transform="matrix(1.0,0.0,0.0,1.0,0.0,0.0)"/></marker><marker id="ProcessOnMarker1167" markerUnits="userSpaceOnUse" orient="auto" markerWidth="16.23606797749979" markerHeight="10.550836550532098" viewBox="-1.0 -1.3763819204711736 16.23606797749979 10.550836550532098" refX="-1.0" refY="3.8990363547948754"><path id="ProcessOnPath1168" d="M12.0 3.8990363547948754L0.0 7.798072709589751V0.0Z" stroke="#323232" stroke-width="2.0" fill="#323232" transform="matrix(1.0,0.0,0.0,1.0,0.0,0.0)"/></marker><marker id="ProcessOnMarker1174" markerUnits="userSpaceOnUse" orient="auto" markerWidth="16.23606797749979" markerHeight="10.550836550532098" viewBox="-1.0 -1.3763819204711736 16.23606797749979 10.550836550532098" refX="-1.0" refY="3.8990363547948754"><path id="ProcessOnPath1175" d="M12.0 3.8990363547948754L0.0 7.798072709589751V0.0Z" stroke="#323232" stroke-width="2.0" fill="#323232" transform="matrix(1.0,0.0,0.0,1.0,0.0,0.0)"/></marker><marker id="ProcessOnMarker1181" markerUnits="userSpaceOnUse" orient="auto" markerWidth="16.23606797749979" markerHeight="10.550836550532098" viewBox="-1.0 -1.3763819204711736 16.23606797749979 10.550836550532098" refX="-1.0" refY="3.8990363547948754"><path id="ProcessOnPath1182" d="M12.0 3.8990363547948754L0.0 7.798072709589751V0.0Z" stroke="#323232" stroke-width="2.0" fill="#323232" transform="matrix(1.0,0.0,0.0,1.0,0.0,0.0)"/></marker><marker id="ProcessOnMarker1188" markerUnits="userSpaceOnUse" orient="auto" markerWidth="16.23606797749979" markerHeight="10.550836550532098" viewBox="-1.0 -1.3763819204711736 16.23606797749979 10.550836550532098" refX="-1.0" refY="3.8990363547948754"><path id="ProcessOnPath1189" d="M12.0 3.8990363547948754L0.0 7.798072709589751V0.0Z" stroke="#323232" stroke-width="2.0" fill="#323232" transform="matrix(1.0,0.0,0.0,1.0,0.0,0.0)"/></marker></defs><g id="ProcessOnG1002"><path id="ProcessOnPath1003" d="M109.0 104.75H964.6499152036812V463.56854048302694H109.0V104.75Z" fill="none"/><g id="ProcessOnG1004"><g id="ProcessOnG1005" transform="matrix(1.0,0.0,0.0,1.0,198.0,267.0)" opacity="1.0"><path id="ProcessOnPath1006" d="M0.0 25.0C0.0 -8.333333333333334 50.0 -8.333333333333334 50.0 25.0C50.0 58.333333333333336 0.0 58.333333333333336 0.0 25.0Z" stroke="#323232" stroke-width="2.0" stroke-dasharray="none" opacity="1.0" fill="#ffffff"/><g id="ProcessOnG1007" transform="matrix(1.0,0.0,0.0,1.0,10.0,13.75)"><text id="ProcessOnText1008" fill="#000000" font-size="18" x="14.0" y="18.45" font-family="微软雅黑" font-weight="normal" font-style="normal" text-decoration="none" family="微软雅黑" text-anchor="middle" size="18">1</text></g></g><g id="ProcessOnG1009" transform="matrix(1.0,0.0,0.0,1.0,325.0,166.0)" opacity="1.0"><path id="ProcessOnPath1010" d="M0.0 25.0C0.0 -8.333333333333334 50.0 -8.333333333333334 50.0 25.0C50.0 58.333333333333336 0.0 58.333333333333336 0.0 25.0Z" stroke="#323232" stroke-width="2.0" stroke-dasharray="none" opacity="1.0" fill="#ffffff"/></g><g id="ProcessOnG1011"><path id="ProcessOnPath1012" d="M248.0 292.0L315.7626703354997 203.11649735213678" stroke="#323232" stroke-width="2.0" stroke-dasharray="none" fill="none" marker-end="url(#ProcessOnMarker1013)"/><g id="ProcessOnG1015" transform="matrix(1.0,0.0,0.0,1.0,281.88133516774985,236.3082486760684)"><path id="ProcessOnPath1016" d="M0 0H42.0V22.5H0Z" fill="#fff" transform="matrix(1.0,0.0,0.0,1.0,-21.0,0.0)"/><text id="ProcessOnText1017" fill="#000000" font-size="18" x="0.0" y="18.45" font-family="微软雅黑" font-weight="normal" font-style="normal" text-decoration="none" family="微软雅黑" text-anchor="middle" size="18">[0-9]</text></g></g><g id="ProcessOnG1018"><path id="ProcessOnPath1019" d="M129.0 292.0L163.5 292.0L163.5 292.0L182.7639320225002 292.0" stroke="#323232" stroke-width="2.0" stroke-dasharray="none" fill="none" marker-end="url(#ProcessOnMarker1020)"/></g><g id="ProcessOnG1022" transform="matrix(1.0,0.0,0.0,1.0,325.0,267.0)" opacity="1.0"><path id="ProcessOnPath1023" d="M0.0 25.0C0.0 -8.333333333333334 50.0 -8.333333333333334 50.0 25.0C50.0 58.333333333333336 0.0 58.333333333333336 0.0 25.0Z" stroke="#323232" stroke-width="2.0" stroke-dasharray="none" opacity="1.0" fill="#ffffff"/><g id="ProcessOnG1024" transform="matrix(1.0,0.0,0.0,1.0,10.0,13.75)"><text id="ProcessOnText1025" fill="#000000" font-size="18" x="14.0" y="18.45" font-family="微软雅黑" font-weight="normal" font-style="normal" text-decoration="none" family="微软雅黑" text-anchor="middle" size="18">3</text></g></g><g id="ProcessOnG1026" transform="matrix(1.0,0.0,0.0,1.0,325.0,356.0)" opacity="1.0"><path id="ProcessOnPath1027" d="M0.0 25.0C0.0 -8.333333333333334 50.0 -8.333333333333334 50.0 25.0C50.0 58.333333333333336 0.0 58.333333333333336 0.0 25.0Z" stroke="#323232" stroke-width="2.0" stroke-dasharray="none" opacity="1.0" fill="#ffffff"/><g id="ProcessOnG1028" transform="matrix(1.0,0.0,0.0,1.0,10.0,13.75)"><text id="ProcessOnText1029" fill="#000000" font-size="18" x="14.0" y="18.45" font-family="微软雅黑" font-weight="normal" font-style="normal" text-decoration="none" family="微软雅黑" text-anchor="middle" size="18">4</text></g></g><g id="ProcessOnG1030"><path id="ProcessOnPath1031" d="M248.0 292.0L286.5 292.0L286.5 292.0L309.7639320225002 292.0" stroke="#323232" stroke-width="2.0" stroke-dasharray="none" fill="none" marker-end="url(#ProcessOnMarker1032)"/><g id="ProcessOnG1034" transform="matrix(1.0,0.0,0.0,1.0,278.88196601125014,280.75)"><path id="ProcessOnPath1035" d="M0 0H37.0V22.5H0Z" fill="#fff" transform="matrix(1.0,0.0,0.0,1.0,-18.5,0.0)"/><text id="ProcessOnText1036" fill="#000000" font-size="18" x="0.0" y="18.45" font-family="微软雅黑" font-weight="normal" font-style="normal" text-decoration="none" family="微软雅黑" text-anchor="middle" size="18">[+,-]</text></g></g><g id="ProcessOnG1037"><path id="ProcessOnPath1038" d="M223.0 317.0L223.0 381.0L309.7639320225002 381.0" stroke="#323232" stroke-width="2.0" stroke-dasharray="none" fill="none" marker-end="url(#ProcessOnMarker1039)"/><g id="ProcessOnG1041" transform="matrix(1.0,0.0,0.0,1.0,234.3819660112501,369.75)"><path id="ProcessOnPath1042" d="M0 0H4.0V22.5H0Z" fill="#fff" transform="matrix(1.0,0.0,0.0,1.0,-2.0,0.0)"/><text id="ProcessOnText1043" fill="#000000" font-size="18" x="0.0" y="18.45" font-family="微软雅黑" font-weight="normal" font-style="normal" text-decoration="none" family="微软雅黑" text-anchor="middle" size="18">.</text></g></g><g id="ProcessOnG1044"><path id="ProcessOnPath1045" d="M350.0 267.0L350.0 231.2360679774998" stroke="#323232" stroke-width="2.0" stroke-dasharray="none" fill="none" marker-end="url(#ProcessOnMarker1046)"/><g id="ProcessOnG1048" transform="matrix(1.0,0.0,0.0,1.0,350.0,237.86803398874991)"><path id="ProcessOnPath1049" d="M0 0H42.0V22.5H0Z" fill="#fff" transform="matrix(1.0,0.0,0.0,1.0,-21.0,0.0)"/><text id="ProcessOnText1050" fill="#000000" font-size="18" x="0.0" y="18.45" font-family="微软雅黑" font-weight="normal" font-style="normal" text-decoration="none" family="微软雅黑" text-anchor="middle" size="18">[0-9]</text></g></g><g id="ProcessOnG1051" transform="matrix(1.0,0.0,0.0,1.0,330.0,171.0)" opacity="1.0"><path id="ProcessOnPath1052" d="M0.0 20.0C0.0 -6.666666666666667 40.0 -6.666666666666667 40.0 20.0C40.0 46.666666666666664 0.0 46.666666666666664 0.0 20.0Z" stroke="#323232" stroke-width="2.0" stroke-dasharray="none" opacity="1.0" fill="#ffffff"/><g id="ProcessOnG1053" transform="matrix(1.0,0.0,0.0,1.0,10.0,8.75)"><text id="ProcessOnText1054" fill="#000000" font-size="18" x="9.0" y="18.45" font-family="微软雅黑" font-weight="normal" font-style="normal" text-decoration="none" family="微软雅黑" text-anchor="middle" size="18">2</text></g></g><g id="ProcessOnG1055"><path id="ProcessOnPath1056" d="M330.276608177156 175.2943057454042L295.0 175.2943057454042L295.0 136.0L350.0 136.0L350.0 150.7639320225002" stroke="#323232" stroke-width="2.0" stroke-dasharray="none" fill="none" marker-end="url(#ProcessOnMarker1057)"/><g id="ProcessOnG1059" transform="matrix(1.0,0.0,0.0,1.0,295.0,127.15349095003)"><path id="ProcessOnPath1060" d="M0 0H42.0V22.5H0Z" fill="#fff" transform="matrix(1.0,0.0,0.0,1.0,-21.0,0.0)"/><text id="ProcessOnText1061" fill="#000000" font-size="18" x="0.0" y="18.45" font-family="微软雅黑" font-weight="normal" font-style="normal" text-decoration="none" family="微软雅黑" text-anchor="middle" size="18">[0-9]</text></g></g><g id="ProcessOnG1062" transform="matrix(1.0,0.0,0.0,1.0,445.0,356.0)" opacity="1.0"><path id="ProcessOnPath1063" d="M0.0 25.0C0.0 -8.333333333333334 50.0 -8.333333333333334 50.0 25.0C50.0 58.333333333333336 0.0 58.333333333333336 0.0 25.0Z" stroke="#323232" stroke-width="2.0" stroke-dasharray="none" opacity="1.0" fill="#ffffff"/></g><g id="ProcessOnG1064"><path id="ProcessOnPath1065" d="M375.0 381.0L410.0 381.0L410.0 381.0L429.7639320225002 381.0" stroke="#323232" stroke-width="2.0" stroke-dasharray="none" fill="none" marker-end="url(#ProcessOnMarker1066)"/><g id="ProcessOnG1068" transform="matrix(1.0,0.0,0.0,1.0,402.38196601125014,369.75)"><path id="ProcessOnPath1069" d="M0 0H42.0V22.5H0Z" fill="#fff" transform="matrix(1.0,0.0,0.0,1.0,-21.0,0.0)"/><text id="ProcessOnText1070" fill="#000000" font-size="18" x="0.0" y="18.45" font-family="微软雅黑" font-weight="normal" font-style="normal" text-decoration="none" family="微软雅黑" text-anchor="middle" size="18">[0-9]</text></g></g><g id="ProcessOnG1071"><path id="ProcessOnPath1072" d="M350.0 317.0L350.0 336.5L350.0 336.5L350.0 340.7639320225002" stroke="#323232" stroke-width="2.0" stroke-dasharray="none" fill="none" marker-end="url(#ProcessOnMarker1073)"/><g id="ProcessOnG1075" transform="matrix(1.0,0.0,0.0,1.0,350.0,317.63196601125014)"><path id="ProcessOnPath1076" d="M0 0H4.0V22.5H0Z" fill="#fff" transform="matrix(1.0,0.0,0.0,1.0,-2.0,0.0)"/><text id="ProcessOnText1077" fill="#000000" font-size="18" x="0.0" y="18.45" font-family="微软雅黑" font-weight="normal" font-style="normal" text-decoration="none" family="微软雅黑" text-anchor="middle" size="18">.</text></g></g><g id="ProcessOnG1078" transform="matrix(1.0,0.0,0.0,1.0,450.0,361.0)" opacity="1.0"><path id="ProcessOnPath1079" d="M0.0 20.0C0.0 -6.666666666666667 40.0 -6.666666666666667 40.0 20.0C40.0 46.666666666666664 0.0 46.666666666666664 0.0 20.0Z" stroke="#323232" stroke-width="2.0" stroke-dasharray="none" opacity="1.0" fill="#ffffff"/><g id="ProcessOnG1080" transform="matrix(1.0,0.0,0.0,1.0,10.0,8.75)"><text id="ProcessOnText1081" fill="#000000" font-size="18" x="9.0" y="18.45" font-family="微软雅黑" font-weight="normal" font-style="normal" text-decoration="none" family="微软雅黑" text-anchor="middle" size="18">5</text></g></g><g id="ProcessOnG1082" transform="matrix(1.0,0.0,0.0,1.0,576.0,166.0)" opacity="1.0"><path id="ProcessOnPath1083" d="M0.0 25.0C0.0 -8.333333333333334 50.0 -8.333333333333334 50.0 25.0C50.0 58.333333333333336 0.0 58.333333333333336 0.0 25.0Z" stroke="#323232" stroke-width="2.0" stroke-dasharray="none" opacity="1.0" fill="#ffffff"/><g id="ProcessOnG1084" transform="matrix(1.0,0.0,0.0,1.0,10.0,13.75)"><text id="ProcessOnText1085" fill="#000000" font-size="18" x="14.0" y="18.45" font-family="微软雅黑" font-weight="normal" font-style="normal" text-decoration="none" family="微软雅黑" text-anchor="middle" size="18">6</text></g></g><g id="ProcessOnG1086"><path id="ProcessOnPath1087" d="M375.0 191.0L470.0 191.0L470.0 340.7639320225002" stroke="#323232" stroke-width="2.0" stroke-dasharray="none" fill="none" marker-end="url(#ProcessOnMarker1088)"/><g id="ProcessOnG1090" transform="matrix(1.0,0.0,0.0,1.0,470.0,207.1319660112501)"><path id="ProcessOnPath1091" d="M0 0H4.0V22.5H0Z" fill="#fff" transform="matrix(1.0,0.0,0.0,1.0,-2.0,0.0)"/><text id="ProcessOnText1092" fill="#000000" font-size="18" x="0.0" y="18.45" font-family="微软雅黑" font-weight="normal" font-style="normal" text-decoration="none" family="微软雅黑" text-anchor="middle" size="18">.</text></g></g><g id="ProcessOnG1093"><path id="ProcessOnPath1094" d="M375.0 191.0L475.5 191.0L475.5 191.0L560.7639320225002 191.0" stroke="#323232" stroke-width="2.0" stroke-dasharray="none" fill="none" marker-end="url(#ProcessOnMarker1095)"/><g id="ProcessOnG1097" transform="matrix(1.0,0.0,0.0,1.0,467.8819660112501,179.75)"><path id="ProcessOnPath1098" d="M0 0H10.0V22.5H0Z" fill="#fff" transform="matrix(1.0,0.0,0.0,1.0,-5.0,0.0)"/><text id="ProcessOnText1099" fill="#000000" font-size="18" x="0.0" y="18.45" font-family="微软雅黑" font-weight="normal" font-style="normal" text-decoration="none" family="微软雅黑" text-anchor="middle" size="18">e</text></g></g><g id="ProcessOnG1100"><path id="ProcessOnPath1101" d="M203.27660817715596 276.2943057454042L168.0 276.2943057454042L168.0 237.0L223.0 237.0L223.0 251.7639320225002" stroke="#323232" stroke-width="2.0" stroke-dasharray="none" fill="none" marker-end="url(#ProcessOnMarker1102)"/><g id="ProcessOnG1104" transform="matrix(1.0,0.0,0.0,1.0,168.0,228.15349095002998)"><path id="ProcessOnPath1105" d="M0 0H48.0V22.5H0Z" fill="#fff" transform="matrix(1.0,0.0,0.0,1.0,-24.0,0.0)"/><text id="ProcessOnText1106" fill="#000000" font-size="18" x="0.0" y="18.45" font-family="微软雅黑" font-weight="normal" font-style="normal" text-decoration="none" family="微软雅黑" text-anchor="middle" size="18">blank</text></g></g><g id="ProcessOnG1107" transform="matrix(1.0,0.0,0.0,1.0,705.0,166.0)" opacity="1.0"><path id="ProcessOnPath1108" d="M0.0 25.0C0.0 -8.333333333333334 50.0 -8.333333333333334 50.0 25.0C50.0 58.333333333333336 0.0 58.333333333333336 0.0 25.0Z" stroke="#323232" stroke-width="2.0" stroke-dasharray="none" opacity="1.0" fill="#ffffff"/><g id="ProcessOnG1109" transform="matrix(1.0,0.0,0.0,1.0,10.0,13.75)"><text id="ProcessOnText1110" fill="#000000" font-size="18" x="14.0" y="18.45" font-family="微软雅黑" font-weight="normal" font-style="normal" text-decoration="none" family="微软雅黑" text-anchor="middle" size="18">7</text></g></g><g id="ProcessOnG1111"><path id="ProcessOnPath1112" d="M626.0 191.0L665.5 191.0L665.5 191.0L689.7639320225002 191.0" stroke="#323232" stroke-width="2.0" stroke-dasharray="none" fill="none" marker-end="url(#ProcessOnMarker1113)"/><g id="ProcessOnG1115" transform="matrix(1.0,0.0,0.0,1.0,657.8819660112501,179.75)"><path id="ProcessOnPath1116" d="M0 0H37.0V22.5H0Z" fill="#fff" transform="matrix(1.0,0.0,0.0,1.0,-18.5,0.0)"/><text id="ProcessOnText1117" fill="#000000" font-size="18" x="0.0" y="18.45" font-family="微软雅黑" font-weight="normal" font-style="normal" text-decoration="none" family="微软雅黑" text-anchor="middle" size="18">[+,-]</text></g></g><g id="ProcessOnG1118" transform="matrix(1.0,0.0,0.0,1.0,702.8349364905389,273.0)" opacity="1.0"><path id="ProcessOnPath1119" d="M0.0 25.0C0.0 -8.333333333333334 50.0 -8.333333333333334 50.0 25.0C50.0 58.333333333333336 0.0 58.333333333333336 0.0 25.0Z" stroke="#323232" stroke-width="2.0" stroke-dasharray="none" opacity="1.0" fill="#ffffff"/></g><g id="ProcessOnG1120"><path id="ProcessOnPath1121" d="M626.0 191.0L693.9480574925763 285.6241707715982" stroke="#323232" stroke-width="2.0" stroke-dasharray="none" fill="none" marker-end="url(#ProcessOnMarker1122)"/><g id="ProcessOnG1124" transform="matrix(1.0,0.0,0.0,1.0,659.9740287462881,227.0620853857991)"><path id="ProcessOnPath1125" d="M0 0H42.0V22.5H0Z" fill="#fff" transform="matrix(1.0,0.0,0.0,1.0,-21.0,0.0)"/><text id="ProcessOnText1126" fill="#000000" font-size="18" x="0.0" y="18.45" font-family="微软雅黑" font-weight="normal" font-style="normal" text-decoration="none" family="微软雅黑" text-anchor="middle" size="18">[0-9]</text></g></g><g id="ProcessOnG1127"><path id="ProcessOnPath1128" d="M707.1650635094611 311.5L677.1650635094611 311.5L677.1650635094611 353.0L782.8349364905389 353.0L782.8349364905389 310.9849649455427L764.3369401580158 310.9849649455427" stroke="#323232" stroke-width="2.0" stroke-dasharray="none" fill="none" marker-end="url(#ProcessOnMarker1129)"/><g id="ProcessOnG1131" transform="matrix(1.0,0.0,0.0,1.0,724.5065156934902,341.75)"><path id="ProcessOnPath1132" d="M0 0H42.0V22.5H0Z" fill="#fff" transform="matrix(1.0,0.0,0.0,1.0,-21.0,0.0)"/><text id="ProcessOnText1133" fill="#000000" font-size="18" x="0.0" y="18.45" font-family="微软雅黑" font-weight="normal" font-style="normal" text-decoration="none" family="微软雅黑" text-anchor="middle" size="18">[0-9]</text></g></g><g id="ProcessOnG1134"><path id="ProcessOnPath1135" d="M730.0 216.0L730.0 244.5L727.8349364905389 244.5L727.8349364905389 257.7639320225002" stroke="#323232" stroke-width="2.0" stroke-dasharray="none" fill="none" marker-end="url(#ProcessOnMarker1136)"/><g id="ProcessOnG1138" transform="matrix(1.0,0.0,0.0,1.0,730.0,226.71449776598067)"><path id="ProcessOnPath1139" d="M0 0H42.0V22.5H0Z" fill="#fff" transform="matrix(1.0,0.0,0.0,1.0,-21.0,0.0)"/><text id="ProcessOnText1140" fill="#000000" font-size="18" x="0.0" y="18.45" font-family="微软雅黑" font-weight="normal" font-style="normal" text-decoration="none" family="微软雅黑" text-anchor="middle" size="18">[0-9]</text></g></g><g id="ProcessOnG1141" transform="matrix(1.0,0.0,0.0,1.0,707.8349364905389,278.0)" opacity="1.0"><path id="ProcessOnPath1142" d="M0.0 20.0C0.0 -6.666666666666667 40.0 -6.666666666666667 40.0 20.0C40.0 46.666666666666664 0.0 46.666666666666664 0.0 20.0Z" stroke="#323232" stroke-width="2.0" stroke-dasharray="none" opacity="1.0" fill="#ffffff"/><g id="ProcessOnG1143" transform="matrix(1.0,0.0,0.0,1.0,10.0,8.75)"><text id="ProcessOnText1144" fill="#000000" font-size="18" x="9.0" y="18.45" font-family="微软雅黑" font-weight="normal" font-style="normal" text-decoration="none" family="微软雅黑" text-anchor="middle" size="18">8</text></g></g><g id="ProcessOnG1145" transform="matrix(1.0,0.0,0.0,1.0,844.0,166.0)" opacity="1.0"><path id="ProcessOnPath1146" d="M0.0 25.0C0.0 -8.333333333333334 50.0 -8.333333333333334 50.0 25.0C50.0 58.333333333333336 0.0 58.333333333333336 0.0 25.0Z" stroke="#323232" stroke-width="2.0" stroke-dasharray="none" opacity="1.0" fill="#ffffff"/></g><g id="ProcessOnG1147" transform="matrix(1.0,0.0,0.0,1.0,849.0,171.0)" opacity="1.0"><path id="ProcessOnPath1148" d="M0.0 20.0C0.0 -6.666666666666667 40.0 -6.666666666666667 40.0 20.0C40.0 46.666666666666664 0.0 46.666666666666664 0.0 20.0Z" stroke="#323232" stroke-width="2.0" stroke-dasharray="none" opacity="1.0" fill="#ffffff"/><g id="ProcessOnG1149" transform="matrix(1.0,0.0,0.0,1.0,10.0,8.75)"><text id="ProcessOnText1150" fill="#000000" font-size="18" x="9.0" y="18.45" font-family="微软雅黑" font-weight="normal" font-style="normal" text-decoration="none" family="微软雅黑" text-anchor="middle" size="18">9</text></g></g><g id="ProcessOnG1151"><path id="ProcessOnPath1152" d="M495.0 381.0L601.0 381.0L601.0 231.2360679774998" stroke="#323232" stroke-width="2.0" stroke-dasharray="none" fill="none" marker-end="url(#ProcessOnMarker1153)"/><g id="ProcessOnG1155" transform="matrix(1.0,0.0,0.0,1.0,601.0,347.8680339887499)"><path id="ProcessOnPath1156" d="M0 0H10.0V22.5H0Z" fill="#fff" transform="matrix(1.0,0.0,0.0,1.0,-5.0,0.0)"/><text id="ProcessOnText1157" fill="#000000" font-size="18" x="0.0" y="18.45" font-family="微软雅黑" font-weight="normal" font-style="normal" text-decoration="none" family="微软雅黑" text-anchor="middle" size="18">e</text></g></g><g id="ProcessOnG1158"><path id="ProcessOnPath1159" d="M447.7587704831436 391.6319194266973L415.0 391.6319194266973L415.0 436.0L470.0 436.0L470.0 421.2360679774998" stroke="#323232" stroke-width="2.0" stroke-dasharray="none" fill="none" marker-end="url(#ProcessOnMarker1160)"/><g id="ProcessOnG1162" transform="matrix(1.0,0.0,0.0,1.0,415.0,421.06854048302694)"><path id="ProcessOnPath1163" d="M0 0H42.0V22.5H0Z" fill="#fff" transform="matrix(1.0,0.0,0.0,1.0,-21.0,0.0)"/><text id="ProcessOnText1164" fill="#000000" font-size="18" x="0.0" y="18.45" font-family="微软雅黑" font-weight="normal" font-style="normal" text-decoration="none" family="微软雅黑" text-anchor="middle" size="18">[0-9]</text></g></g><g id="ProcessOnG1165"><path id="ProcessOnPath1166" d="M491.265935689977 393.9849649455427L869.0 393.9849649455427L869.0 231.2360679774998" stroke="#323232" stroke-width="2.0" stroke-dasharray="none" fill="none" marker-end="url(#ProcessOnMarker1167)"/><g id="ProcessOnG1169" transform="matrix(1.0,0.0,0.0,1.0,761.50741632901,382.7349649455427)"><path id="ProcessOnPath1170" d="M0 0H48.0V22.5H0Z" fill="#fff" transform="matrix(1.0,0.0,0.0,1.0,-24.0,0.0)"/><text id="ProcessOnText1171" fill="#000000" font-size="18" x="0.0" y="18.45" font-family="微软雅黑" font-weight="normal" font-style="normal" text-decoration="none" family="微软雅黑" text-anchor="middle" size="18">blank</text></g></g><g id="ProcessOnG1172"><path id="ProcessOnPath1173" d="M365.13211781824475 171.09576022144495L365.13211781824475 136.0L869.0 136.0L869.0 150.7639320225002" stroke="#323232" stroke-width="2.0" stroke-dasharray="none" fill="none" marker-end="url(#ProcessOnMarker1174)"/><g id="ProcessOnG1176" transform="matrix(1.0,0.0,0.0,1.0,606.90014480965,124.75)"><path id="ProcessOnPath1177" d="M0 0H48.0V22.5H0Z" fill="#fff" transform="matrix(1.0,0.0,0.0,1.0,-24.0,0.0)"/><text id="ProcessOnText1178" fill="#000000" font-size="18" x="0.0" y="18.45" font-family="微软雅黑" font-weight="normal" font-style="normal" text-decoration="none" family="微软雅黑" text-anchor="middle" size="18">blank</text></g></g><g id="ProcessOnG1179"><path id="ProcessOnPath1180" d="M752.8349364905389 298.0L798.4174682452694 298.0L798.4174682452694 191.0L828.7639320225002 191.0" stroke="#323232" stroke-width="2.0" stroke-dasharray="none" fill="none" marker-end="url(#ProcessOnMarker1181)"/><g id="ProcessOnG1183" transform="matrix(1.0,0.0,0.0,1.0,798.4174682452694,240.86803398874991)"><path id="ProcessOnPath1184" d="M0 0H48.0V22.5H0Z" fill="#fff" transform="matrix(1.0,0.0,0.0,1.0,-24.0,0.0)"/><text id="ProcessOnText1185" fill="#000000" font-size="18" x="0.0" y="18.45" font-family="微软雅黑" font-weight="normal" font-style="normal" text-decoration="none" family="微软雅黑" text-anchor="middle" size="18">blank</text></g></g><g id="ProcessOnG1186"><path id="ProcessOnPath1187" d="M881.0 169.46410161513776L881.0 136.0L924.0 136.0L924.0 191.0L909.2360679774998 191.0" stroke="#323232" stroke-width="2.0" stroke-dasharray="none" fill="none" marker-end="url(#ProcessOnMarker1188)"/><g id="ProcessOnG1190" transform="matrix(1.0,0.0,0.0,1.0,920.6499152036812,124.75)"><path id="ProcessOnPath1191" d="M0 0H48.0V22.5H0Z" fill="#fff" transform="matrix(1.0,0.0,0.0,1.0,-24.0,0.0)"/><text id="ProcessOnText1192" fill="#000000" font-size="18" x="0.0" y="18.45" font-family="微软雅黑" font-weight="normal" font-style="normal" text-decoration="none" family="微软雅黑" text-anchor="middle" size="18">blank</text></g></g></g></g></svg>